REM MD5 33d027e45a402048a32ed764c1fbd347
FILE "Punch the Monkey! Game Edition (Japan).bin" BINARY
  TRACK 01 MODE2/2352
    INDEX 01 00:00:00
  TRACK 02 AUDIO
    INDEX 00 46:27:14
    INDEX 01 46:29:14
  TRACK 03 AUDIO
    INDEX 00 46:36:19
    INDEX 01 46:38:19
  TRACK 04 AUDIO
    INDEX 00 47:39:29
    INDEX 01 47:41:29
REM LEADOUT 50:45:39
